<mxfile host="Electron" agent="Mozilla/5.0 (Windows NT 10.0; Win64; x64) AppleWebKit/537.36 (KHTML, like Gecko) draw.io/25.0.1 Chrome/128.0.6613.186 Electron/32.2.6 Safari/537.36" version="25.0.1">
  <diagram id="kgpKYQtTHZ0yAKxKKP6v" name="Page-1">
    <mxGraphModel dx="1276" dy="654" grid="1" gridSize="10" guides="1" tooltips="1" connect="1" arrows="1" fold="1" page="1" pageScale="1" pageWidth="850" pageHeight="1100" math="0" shadow="0">
      <root>
        <mxCell id="0" />
        <mxCell id="1" parent="0" />
        <mxCell id="6m8TXV30G8uZJ4KEub5E-7" value="Driver" style="whiteSpace=wrap;html=1;aspect=fixed;" parent="1" vertex="1">
          <mxGeometry x="130.12" y="688.8100000000001" width="65" height="65" as="geometry" />
        </mxCell>
        <mxCell id="6m8TXV30G8uZJ4KEub5E-17" value="" style="shape=doubleArrow;direction=south;whiteSpace=wrap;html=1;rotation=0;" parent="1" vertex="1">
          <mxGeometry x="270" y="770" width="30" height="60" as="geometry" />
        </mxCell>
        <mxCell id="6m8TXV30G8uZJ4KEub5E-21" value="" style="endArrow=none;html=1;rounded=0;" parent="1" edge="1">
          <mxGeometry width="50" height="50" relative="1" as="geometry">
            <mxPoint x="120" y="764.08" as="sourcePoint" />
            <mxPoint x="120" y="598.8100000000001" as="targetPoint" />
          </mxGeometry>
        </mxCell>
        <mxCell id="6m8TXV30G8uZJ4KEub5E-22" value="" style="endArrow=none;html=1;rounded=0;" parent="1" edge="1">
          <mxGeometry width="50" height="50" relative="1" as="geometry">
            <mxPoint x="318.95" y="598.8100000000001" as="sourcePoint" />
            <mxPoint x="120.07" y="598.8100000000001" as="targetPoint" />
            <Array as="points" />
          </mxGeometry>
        </mxCell>
        <mxCell id="6m8TXV30G8uZJ4KEub5E-23" value="" style="endArrow=none;html=1;rounded=0;" parent="1" edge="1">
          <mxGeometry width="50" height="50" relative="1" as="geometry">
            <mxPoint x="319" y="764.08" as="sourcePoint" />
            <mxPoint x="319" y="598.8100000000001" as="targetPoint" />
          </mxGeometry>
        </mxCell>
        <mxCell id="6m8TXV30G8uZJ4KEub5E-25" value="" style="endArrow=none;html=1;rounded=0;" parent="1" edge="1">
          <mxGeometry width="50" height="50" relative="1" as="geometry">
            <mxPoint x="320" y="764.35" as="sourcePoint" />
            <mxPoint x="120.12" y="764.08" as="targetPoint" />
          </mxGeometry>
        </mxCell>
        <mxCell id="NPBcsrs3oU3PZ0T7SLaP-32" style="edgeStyle=orthogonalEdgeStyle;rounded=0;orthogonalLoop=1;jettySize=auto;html=1;entryX=0.14;entryY=0.987;entryDx=0;entryDy=0;entryPerimeter=0;" edge="1" parent="1" source="6m8TXV30G8uZJ4KEub5E-26" target="6m8TXV30G8uZJ4KEub5E-113">
          <mxGeometry relative="1" as="geometry">
            <mxPoint x="360" y="580" as="targetPoint" />
          </mxGeometry>
        </mxCell>
        <mxCell id="6m8TXV30G8uZJ4KEub5E-26" value="Monitor" style="whiteSpace=wrap;html=1;aspect=fixed;" parent="1" vertex="1">
          <mxGeometry x="240.12" y="688.8100000000001" width="65" height="65" as="geometry" />
        </mxCell>
        <mxCell id="NPBcsrs3oU3PZ0T7SLaP-18" style="edgeStyle=orthogonalEdgeStyle;rounded=0;orthogonalLoop=1;jettySize=auto;html=1;exitX=0.5;exitY=1;exitDx=0;exitDy=0;entryX=0.5;entryY=0;entryDx=0;entryDy=0;" edge="1" parent="1" source="6m8TXV30G8uZJ4KEub5E-30" target="6m8TXV30G8uZJ4KEub5E-7">
          <mxGeometry relative="1" as="geometry" />
        </mxCell>
        <mxCell id="6m8TXV30G8uZJ4KEub5E-30" value="Sequencer" style="whiteSpace=wrap;html=1;aspect=fixed;" parent="1" vertex="1">
          <mxGeometry x="130.12" y="606.3100000000001" width="65" height="65" as="geometry" />
        </mxCell>
        <mxCell id="6m8TXV30G8uZJ4KEub5E-89" value="" style="endArrow=none;html=1;rounded=0;" parent="1" edge="1">
          <mxGeometry width="50" height="50" relative="1" as="geometry">
            <mxPoint x="100" y="800" as="sourcePoint" />
            <mxPoint x="100" y="430" as="targetPoint" />
          </mxGeometry>
        </mxCell>
        <mxCell id="6m8TXV30G8uZJ4KEub5E-92" value="" style="endArrow=none;html=1;rounded=0;" parent="1" edge="1">
          <mxGeometry width="50" height="50" relative="1" as="geometry">
            <mxPoint x="709.56" y="430" as="sourcePoint" />
            <mxPoint x="99.99999999999997" y="430" as="targetPoint" />
          </mxGeometry>
        </mxCell>
        <mxCell id="6m8TXV30G8uZJ4KEub5E-94" value="Virtual Sequencer" style="whiteSpace=wrap;html=1;aspect=fixed;" parent="1" vertex="1">
          <mxGeometry x="122.62" y="484.08" width="80" height="80" as="geometry" />
        </mxCell>
        <mxCell id="6m8TXV30G8uZJ4KEub5E-95" value="" style="endArrow=none;html=1;rounded=0;" parent="1" edge="1">
          <mxGeometry width="50" height="50" relative="1" as="geometry">
            <mxPoint x="80" y="900" as="sourcePoint" />
            <mxPoint x="80" y="360" as="targetPoint" />
          </mxGeometry>
        </mxCell>
        <mxCell id="6m8TXV30G8uZJ4KEub5E-113" value="SCORE BOARD" style="rounded=1;whiteSpace=wrap;html=1;" parent="1" vertex="1">
          <mxGeometry x="340" y="484.08" width="120" height="80" as="geometry" />
        </mxCell>
        <mxCell id="6m8TXV30G8uZJ4KEub5E-118" value="" style="endArrow=none;html=1;rounded=0;" parent="1" edge="1">
          <mxGeometry width="50" height="50" relative="1" as="geometry">
            <mxPoint x="710" y="800" as="sourcePoint" />
            <mxPoint x="710" y="430" as="targetPoint" />
            <Array as="points">
              <mxPoint x="710" y="620" />
            </Array>
          </mxGeometry>
        </mxCell>
        <mxCell id="6m8TXV30G8uZJ4KEub5E-119" value="ENVIRONMENT" style="text;html=1;align=center;verticalAlign=middle;resizable=0;points=[];autosize=1;strokeColor=none;fillColor=none;" parent="1" vertex="1">
          <mxGeometry x="100" y="440" width="110" height="30" as="geometry" />
        </mxCell>
        <mxCell id="6m8TXV30G8uZJ4KEub5E-120" value="" style="endArrow=none;html=1;rounded=0;" parent="1" edge="1">
          <mxGeometry width="50" height="50" relative="1" as="geometry">
            <mxPoint x="720" y="360" as="sourcePoint" />
            <mxPoint x="80" y="360" as="targetPoint" />
          </mxGeometry>
        </mxCell>
        <mxCell id="6m8TXV30G8uZJ4KEub5E-126" value="AHB AGENT" style="text;html=1;align=center;verticalAlign=middle;resizable=0;points=[];autosize=1;strokeColor=none;fillColor=none;" parent="1" vertex="1">
          <mxGeometry x="210" y="623.8100000000001" width="90" height="30" as="geometry" />
        </mxCell>
        <mxCell id="6m8TXV30G8uZJ4KEub5E-132" value="TEST" style="text;html=1;align=center;verticalAlign=middle;resizable=0;points=[];autosize=1;strokeColor=none;fillColor=none;" parent="1" vertex="1">
          <mxGeometry x="90" y="370" width="50" height="30" as="geometry" />
        </mxCell>
        <mxCell id="6m8TXV30G8uZJ4KEub5E-133" value="" style="endArrow=none;html=1;rounded=0;" parent="1" edge="1">
          <mxGeometry width="50" height="50" relative="1" as="geometry">
            <mxPoint x="720" y="900" as="sourcePoint" />
            <mxPoint x="720" y="360" as="targetPoint" />
          </mxGeometry>
        </mxCell>
        <mxCell id="6m8TXV30G8uZJ4KEub5E-134" value="" style="endArrow=none;html=1;rounded=0;" parent="1" edge="1">
          <mxGeometry width="50" height="50" relative="1" as="geometry">
            <mxPoint x="720" y="900" as="sourcePoint" />
            <mxPoint x="80" y="900" as="targetPoint" />
          </mxGeometry>
        </mxCell>
        <mxCell id="6m8TXV30G8uZJ4KEub5E-135" value="VIRTUAL SEQUENCE" style="rounded=1;whiteSpace=wrap;html=1;rotation=0;" parent="1" vertex="1">
          <mxGeometry x="335" y="370" width="130" height="50" as="geometry" />
        </mxCell>
        <mxCell id="6m8TXV30G8uZJ4KEub5E-8" value="AHB2APB" style="rounded=1;whiteSpace=wrap;html=1;rotation=0;" parent="1" vertex="1">
          <mxGeometry x="320" y="820" width="170" height="60" as="geometry" />
        </mxCell>
        <mxCell id="NPBcsrs3oU3PZ0T7SLaP-19" value="" style="endArrow=none;html=1;rounded=0;" edge="1" parent="1" source="NPBcsrs3oU3PZ0T7SLaP-37">
          <mxGeometry width="50" height="50" relative="1" as="geometry">
            <mxPoint x="190" y="800" as="sourcePoint" />
            <mxPoint x="100" y="800" as="targetPoint" />
          </mxGeometry>
        </mxCell>
        <mxCell id="NPBcsrs3oU3PZ0T7SLaP-20" value="" style="shape=doubleArrow;direction=south;whiteSpace=wrap;html=1;rotation=0;" vertex="1" parent="1">
          <mxGeometry x="508.89" y="770" width="30" height="60" as="geometry" />
        </mxCell>
        <mxCell id="NPBcsrs3oU3PZ0T7SLaP-21" value="" style="shape=doubleArrow;direction=south;whiteSpace=wrap;html=1;rotation=0;" vertex="1" parent="1">
          <mxGeometry x="617.5" y="770" width="30" height="60" as="geometry" />
        </mxCell>
        <mxCell id="NPBcsrs3oU3PZ0T7SLaP-23" value="Driver" style="whiteSpace=wrap;html=1;aspect=fixed;" vertex="1" parent="1">
          <mxGeometry x="600" y="688.8100000000001" width="65" height="65" as="geometry" />
        </mxCell>
        <mxCell id="NPBcsrs3oU3PZ0T7SLaP-24" value="" style="endArrow=none;html=1;rounded=0;" edge="1" parent="1">
          <mxGeometry width="50" height="50" relative="1" as="geometry">
            <mxPoint x="480" y="764.08" as="sourcePoint" />
            <mxPoint x="480" y="598.8100000000001" as="targetPoint" />
          </mxGeometry>
        </mxCell>
        <mxCell id="NPBcsrs3oU3PZ0T7SLaP-25" value="" style="endArrow=none;html=1;rounded=0;" edge="1" parent="1">
          <mxGeometry width="50" height="50" relative="1" as="geometry">
            <mxPoint x="678.9499999999999" y="598.8100000000001" as="sourcePoint" />
            <mxPoint x="480.07000000000005" y="598.8100000000001" as="targetPoint" />
            <Array as="points" />
          </mxGeometry>
        </mxCell>
        <mxCell id="NPBcsrs3oU3PZ0T7SLaP-26" value="" style="endArrow=none;html=1;rounded=0;" edge="1" parent="1">
          <mxGeometry width="50" height="50" relative="1" as="geometry">
            <mxPoint x="679" y="764.08" as="sourcePoint" />
            <mxPoint x="679" y="598.8100000000001" as="targetPoint" />
          </mxGeometry>
        </mxCell>
        <mxCell id="NPBcsrs3oU3PZ0T7SLaP-27" value="" style="endArrow=none;html=1;rounded=0;" edge="1" parent="1">
          <mxGeometry width="50" height="50" relative="1" as="geometry">
            <mxPoint x="680" y="764.35" as="sourcePoint" />
            <mxPoint x="480.12" y="764.08" as="targetPoint" />
          </mxGeometry>
        </mxCell>
        <mxCell id="NPBcsrs3oU3PZ0T7SLaP-28" value="Monitor" style="whiteSpace=wrap;html=1;aspect=fixed;" vertex="1" parent="1">
          <mxGeometry x="500" y="688.8100000000001" width="65" height="65" as="geometry" />
        </mxCell>
        <mxCell id="NPBcsrs3oU3PZ0T7SLaP-29" style="edgeStyle=orthogonalEdgeStyle;rounded=0;orthogonalLoop=1;jettySize=auto;html=1;exitX=0.5;exitY=1;exitDx=0;exitDy=0;entryX=0.5;entryY=0;entryDx=0;entryDy=0;" edge="1" parent="1" source="NPBcsrs3oU3PZ0T7SLaP-30" target="NPBcsrs3oU3PZ0T7SLaP-23">
          <mxGeometry relative="1" as="geometry" />
        </mxCell>
        <mxCell id="NPBcsrs3oU3PZ0T7SLaP-30" value="Sequencer" style="whiteSpace=wrap;html=1;aspect=fixed;" vertex="1" parent="1">
          <mxGeometry x="600" y="606.3100000000001" width="65" height="65" as="geometry" />
        </mxCell>
        <mxCell id="NPBcsrs3oU3PZ0T7SLaP-31" value="APB AGENT" style="text;html=1;align=center;verticalAlign=middle;resizable=0;points=[];autosize=1;strokeColor=none;fillColor=none;" vertex="1" parent="1">
          <mxGeometry x="495" y="623.8100000000001" width="90" height="30" as="geometry" />
        </mxCell>
        <mxCell id="NPBcsrs3oU3PZ0T7SLaP-34" style="edgeStyle=orthogonalEdgeStyle;rounded=0;orthogonalLoop=1;jettySize=auto;html=1;entryX=0.833;entryY=0.987;entryDx=0;entryDy=0;entryPerimeter=0;" edge="1" parent="1" source="NPBcsrs3oU3PZ0T7SLaP-28" target="6m8TXV30G8uZJ4KEub5E-113">
          <mxGeometry relative="1" as="geometry">
            <mxPoint x="440" y="580" as="targetPoint" />
          </mxGeometry>
        </mxCell>
        <mxCell id="NPBcsrs3oU3PZ0T7SLaP-36" value="" style="endArrow=none;html=1;rounded=0;" edge="1" parent="1">
          <mxGeometry width="50" height="50" relative="1" as="geometry">
            <mxPoint x="710" y="800" as="sourcePoint" />
            <mxPoint x="182.6199999999999" y="800" as="targetPoint" />
          </mxGeometry>
        </mxCell>
        <mxCell id="NPBcsrs3oU3PZ0T7SLaP-38" value="" style="endArrow=none;html=1;rounded=0;" edge="1" parent="1" target="NPBcsrs3oU3PZ0T7SLaP-37">
          <mxGeometry width="50" height="50" relative="1" as="geometry">
            <mxPoint x="190" y="800" as="sourcePoint" />
            <mxPoint x="100" y="800" as="targetPoint" />
          </mxGeometry>
        </mxCell>
        <mxCell id="NPBcsrs3oU3PZ0T7SLaP-37" value="" style="shape=doubleArrow;direction=south;whiteSpace=wrap;html=1;rotation=0;" vertex="1" parent="1">
          <mxGeometry x="150.12" y="770" width="30" height="60" as="geometry" />
        </mxCell>
        <mxCell id="NPBcsrs3oU3PZ0T7SLaP-40" value="" style="shape=flexArrow;endArrow=classic;startArrow=classic;html=1;rounded=0;" edge="1" parent="1">
          <mxGeometry width="100" height="100" relative="1" as="geometry">
            <mxPoint x="100" y="849.5" as="sourcePoint" />
            <mxPoint x="320" y="849.5" as="targetPoint" />
          </mxGeometry>
        </mxCell>
        <mxCell id="NPBcsrs3oU3PZ0T7SLaP-47" value="AHB INTERFACE" style="edgeLabel;html=1;align=center;verticalAlign=middle;resizable=0;points=[];" vertex="1" connectable="0" parent="NPBcsrs3oU3PZ0T7SLaP-40">
          <mxGeometry x="0.02" y="-7" relative="1" as="geometry">
            <mxPoint y="13" as="offset" />
          </mxGeometry>
        </mxCell>
        <mxCell id="NPBcsrs3oU3PZ0T7SLaP-41" value="" style="shape=flexArrow;endArrow=classic;startArrow=classic;html=1;rounded=0;" edge="1" parent="1">
          <mxGeometry width="100" height="100" relative="1" as="geometry">
            <mxPoint x="490" y="849.5" as="sourcePoint" />
            <mxPoint x="690" y="850" as="targetPoint" />
          </mxGeometry>
        </mxCell>
        <mxCell id="NPBcsrs3oU3PZ0T7SLaP-43" value="APB INTERFACE" style="edgeLabel;html=1;align=center;verticalAlign=middle;resizable=0;points=[];" vertex="1" connectable="0" parent="NPBcsrs3oU3PZ0T7SLaP-41">
          <mxGeometry x="-0.1679" y="-3" relative="1" as="geometry">
            <mxPoint x="17" y="17" as="offset" />
          </mxGeometry>
        </mxCell>
      </root>
    </mxGraphModel>
  </diagram>
</mxfile>
